<?xml version="1.0" standalone="no"?>
<!DOCTYPE svg PUBLIC "-//W3C//DTD SVG 1.1//EN" "http://www.w3.org/Graphics/SVG/1.1/DTD/svg11.dtd">
<svg xmlns="http://www.w3.org/2000/svg" version="1.2" viewBox="0 0 1024 512" width="200" height="80">
  <title>fdes copy</title>
  <style>
    .s0 { fill: #1b4f75 } 
		.s1 { fill: #a6ce38 } 
		.s2 { fill: #1a4f75 }
  </style>
  <g id="Layer 1">
    <path class="s0" d="m535.8 94.3c123.8 0 224.3 63.4 224.3 141.5 0 78.2-100.5 141.6-224.3 141.6-15.5 0-30.6-1-45.1-2.9 131.2 21.4 228.4-11.2 284.9-71.6 14.1-19.3 21.9-40.7 21.9-63.2 0-83.6-107.3-151.4-239.7-151.4-42.3 0-82 7-116.5 19.1 28.7-8.4 60.7-13.1 94.5-13.1z"/>
    <path class="s1" d="m497.2 357.1q-14.7-1-28.6-3.3c-33.7-4.7-64.6-12.6-93.3-32.5 38.9 29.7 97.7 48.6 163.5 48.6 117.2 0 212.2-60 212.2-133.9 0-70.2-85.5-127.8-194.3-133.5 133 16.3 170.1 78.4 160.7 138.3-0.9 9.1-3.4 17.9-7.2 26.3-23.8 52.4-100.2 90.8-190.9 90.8q-11.2 0-22.1-0.8z"/>
    <path class="s0" d="m202.6 213.6h38.3l-19.6 25.4h-59v38.1h-32.4v-63.5h72.7zm187.8 10.5q0 11.3-4.8 21.1-4.8 9.7-13.1 16.8-8.3 7.1-19.9 11.1-11.5 4.1-25.1 4.1h-69.8v-65h32.4v38.2h37.4q6.7 0 12.4-1.8 5.7-1.8 9.8-5.1 4-3.2 6.4-7.8 2.3-4.6 2.3-10.2 0-5.5-2.3-10.2-2.4-4.7-6.6-8-4.2-3.4-9.8-5.3-5.6-2-12.2-2h-69.8l20.6-27.1h49.2q13.8 0 25.3 3.8 11.5 3.7 19.9 10.5 8.3 6.8 13 16.2 4.7 9.4 4.7 20.7zm137.4 26.3l-20.7 26.8h-100.4v-64.7h32.4 52.2 30.4l-18.5 23.7h-64.1v14.2zm-121.1-50.5v-27h120.8l-20.9 27.1h-15.3v-0.1zm228.8 14.6q19.2 0 29.1 7.1 10 7.1 10 21.5 0 7.9-2.5 14.3-2.5 6.4-7.9 10.8-5.5 4.3-14 6.7-8.5 2.3-20.3 2.3h-97.1l20.7-26.8h78.9q5.7 0 8.4-1.8 2.6-1.8 2.6-5.8 0-4.1-2.6-5.8-2.7-1.7-8.4-1.7h-56.8q-10.1 0-17.4-2.2-7.3-2.2-12.2-6.1-4.8-3.9-7.1-9.4-2.4-5.6-2.4-12.3 0-7.3 2.6-13.3 2.6-6 8-10.2 5.3-4.2 13.8-6.5 8.5-2.4 20.4-2.4h90.5l-20.7 27.1h-72.3q-5.6 0-8.4 1.6-2.7 1.6-2.7 5.6 0 4.1 2.7 5.7 2.8 1.6 8.4 1.6z"/>
    <path class="s1" d="m225.9 200l20.9-27.1h-116.9v27h72.7v0.1z"/>
  </g>
</svg>